[h264 @ 0x55a980a1cd40] Reinit context to 848x480, pix_fmt: yuv420p
Input #0, mov,mp4,m4a,3gp,3g2,mj2, from '/var/www/html/project/media/video/original/video5764702686624617086.mp4':
  Metadata:
    major_brand     : mp42
    minor_version   : 1
    compatible_brands: isommp41mp42
    creation_time   : 2023-12-18T12:36:42.000000Z
  Duration: 00:01:11.57, start: 0.000000, bitrate: 1611 kb/s
    Stream #0:0(und): Video: h264 (High), 1 reference frame (avc1 / 0x31637661), yuv420p(tv, bt709, left), 848x480, 1604 kb/s, SAR 1:1 DAR 53:30, 20.32 fps, 30 tbr, 600 tbn, 1200 tbc (default)
    Metadata:
      creation_time   : 2023-12-18T12:36:42.000000Z
      handler_name    : Core Media Video
    Stream #0:1(und): Audio: aac (LC) (mp4a / 0x6134706D), 44100 Hz, stereo, fltp, 2 kb/s (default)
    Metadata:
      creation_time   : 2023-12-18T12:36:42.000000Z
      handler_name    : Core Media Audio
[h264 @ 0x55a980a6dd80] Reinit context to 1280x720, pix_fmt: yuv420p
Input #1, mov,mp4,m4a,3gp,3g2,mj2, from '/var/www/html/project/static/images/templates/Codino.mp4':
  Metadata:
    major_brand     : mp42
    minor_version   : 1
    compatible_brands: isommp41mp42
    creation_time   : 2021-07-11T07:02:58.000000Z
  Duration: 00:00:02.00, start: 0.000000, bitrate: 1007 kb/s
    Stream #1:0(ita): Audio: aac (LC) (mp4a / 0x6134706D), 44100 Hz, stereo, fltp, 102 kb/s (default)
    Metadata:
      creation_time   : 2021-07-11T07:02:58.000000Z
      handler_name    : Core Media Audio
    Stream #1:1(und): Video: h264 (High), 1 reference frame (avc1 / 0x31637661), yuv420p(tv, bt709, progressive, left), 1280x720 [SAR 1:1 DAR 16:9], 813 kb/s, 25 fps, 25 tbr, 25k tbn, 50k tbc (default)
    Metadata:
      creation_time   : 2021-07-11T07:02:58.000000Z
      handler_name    : Core Media Video
[Parsed_scale_0 @ 0x55a980a5a680] w:1280 h:720 flags:'bilinear' interl:0
[Parsed_scale_2 @ 0x55a980ae4140] w:1280 h:720 flags:'bilinear' interl:0
Stream mapping:
  Stream #0:0 (h264) -> scale
  Stream #0:1 (aac) -> concat:in0:a0
  Stream #1:0 (aac) -> concat:in1:a0
  Stream #1:1 (h264) -> scale
  concat:out:v0 -> Stream #0:0 (libx264)
  concat:out:a0 -> Stream #0:1 (aac)
Press [q] to stop, [?] for help
[h264 @ 0x55a980a3a080] Reinit context to 848x480, pix_fmt: yuv420p
[h264 @ 0x55a980e8e600] Reinit context to 1280x720, pix_fmt: yuv420p
[Parsed_scale_0 @ 0x55a981ab98c0] w:1280 h:720 flags:'bilinear' interl:0
[Parsed_scale_2 @ 0x55a981ac1ec0] w:1280 h:720 flags:'bilinear' interl:0
[graph 0 input from stream 0:0 @ 0x55a981ac5080] w:848 h:480 pixfmt:yuv420p tb:1/600 fr:30/1 sar:1/1 sws_param:flags=2
[graph 0 input from stream 1:1 @ 0x55a981ac6100] w:1280 h:720 pixfmt:yuv420p tb:1/25000 fr:25/1 sar:1/1 sws_param:flags=2
[graph_0_in_0_1 @ 0x55a981ac7080] tb:1/44100 samplefmt:fltp samplerate:44100 chlayout:0x3
[graph_0_in_1_0 @ 0x55a981ac81c0] tb:1/44100 samplefmt:fltp samplerate:44100 chlayout:0x3
[Parsed_scale_0 @ 0x55a981ab98c0] w:848 h:480 fmt:yuv420p sar:1/1 -> w:1280 h:720 fmt:yuv420p sar:159/160 flags:0x2
[Parsed_setsar_1 @ 0x55a981ac19c0] w:1280 h:720 sar:159/160 dar:53/30 -> sar:1/1 dar:16/9
[Parsed_scale_2 @ 0x55a981ac1ec0] w:1280 h:720 fmt:yuv420p sar:1/1 -> w:1280 h:720 fmt:yuv420p sar:1/1 flags:0x2
[Parsed_setsar_3 @ 0x55a981ac2280] w:1280 h:720 sar:1/1 dar:16/9 -> sar:1/1 dar:16/9
[libx264 @ 0x55a980aab2c0] using SAR=1/1
[libx264 @ 0x55a980aab2c0] using cpu capabilities: MMX2 SSE2Fast SSSE3 SSE4.2 AVX FMA3 BMI2 AVX2
[libx264 @ 0x55a980aab2c0] profile High, level 3.1
[libx264 @ 0x55a980aab2c0] 264 - core 155 r2917 0a84d98 - H.264/MPEG-4 AVC codec - Copyleft 2003-2018 - http://www.videolan.org/x264.html - options: cabac=1 ref=1 deblock=1:0:0 analyse=0x3:0x113 me=hex subme=2 psy=1 psy_rd=1.00:0.00 mixed_ref=0 me_range=16 chroma_me=1 trellis=0 8x8dct=1 cqm=0 deadzone=21,11 fast_pskip=1 chroma_qp_offset=0 threads=22 lookahead_threads=5 sliced_threads=0 nr=0 decimate=1 interlaced=0 bluray_compat=0 constrained_intra=0 bframes=3 b_pyramid=2 b_adapt=1 b_bias=0 direct=1 weightb=1 open_gop=0 weightp=1 keyint=250 keyint_min=25 scenecut=40 intra_refresh=0 rc_lookahead=10 rc=crf mbtree=1 crf=18.0 qcomp=0.60 qpmin=0 qpmax=69 qpstep=4 ip_ratio=1.40 aq=1:1.00
Output #0, mp4, to '/var/www/html/project/media/video/watermarks/video5764702686624617086.mp4':
  Metadata:
    major_brand     : mp42
    minor_version   : 1
    compatible_brands: isommp41mp42
    encoder         : Lavf58.29.100
    Stream #0:0: Video: h264 (libx264), 1 reference frame (avc1 / 0x31637661), yuv420p(progressive), 1280x720 [SAR 1:1 DAR 16:9], q=-1--1, 30 fps, 15360 tbn, 30 tbc (default)
    Metadata:
      encoder         : Lavc58.54.100 libx264
    Side data:
      cpb: bitrate max/min/avg: 0/0/0 buffer size: 0 vbv_delay: -1
    Stream #0:1: Audio: aac (LC) (mp4a / 0x6134706D), 44100 Hz, stereo, fltp, delay 1024, 128 kb/s (default)
    Metadata:
      encoder         : Lavc58.54.100 aac
[Parsed_concat_4 @ 0x55a981ac3100] EOF on in0:v0, 1 streams left in segment.
[Parsed_concat_4 @ 0x55a981ac3100] EOF on in0:a0, 0 streams left in segment.
[Parsed_concat_4 @ 0x55a981ac3100] Segment finished at pts=71582564
[Parsed_concat_4 @ 0x55a981ac3100] EOF on in1:a0, 1 streams left in segment.
[Parsed_concat_4 @ 0x55a981ac3100] EOF on in1:v0, 0 streams left in segment.
[Parsed_concat_4 @ 0x55a981ac3100] Segment finished at pts=73601249
No more output streams to write to, finishing.
frame= 1504 fps= 85 q=-1.0 Lsize=   28281kB time=00:01:13.60 bitrate=3147.5kbits/s speed=4.18x    
[AVIOContext @ 0x55a980a1b180] Statistics: 0 seeks, 35 writeouts
video:28170kB audio:42kB subtitle:0kB other streams:0kB global headers:0kB muxing overhead: 0.245370%
Input file #0 (/var/www/html/project/media/video/original/video5764702686624617086.mp4):
  Input stream #0:0 (video): 1454 packets read (14353455 bytes); 1454 frames decoded; 
  Input stream #0:1 (audio): 3082 packets read (18492 bytes); 3080 frames decoded (3153856 samples); 
  Total: 4536 packets (14371947 bytes) demuxed
Input file #1 (/var/www/html/project/static/images/templates/Codino.mp4):
  Input stream #1:0 (audio): 89 packets read (26579 bytes); 87 frames decoded (89024 samples); 
  Input stream #1:1 (video): 50 packets read (203365 bytes); 50 frames decoded; 
  Total: 139 packets (229944 bytes) demuxed
Output file #0 (/var/www/html/project/media/video/watermarks/video5764702686624617086.mp4):
  Output stream #0:0 (video): 1504 frames encoded; 1504 packets muxed (28846143 bytes); 
  Output stream #0:1 (audio): 3170 frames encoded (3245815 samples); 3171 packets muxed (42904 bytes); 
  Total: 4675 packets (28889047 bytes) muxed
[AVIOContext @ 0x55a980aaf100] Statistics: 2 seeks, 114 writeouts
[libx264 @ 0x55a980aab2c0] frame I:13    Avg QP:13.27  size: 55975
[libx264 @ 0x55a980aab2c0] frame P:470   Avg QP:17.09  size: 32736
[libx264 @ 0x55a980aab2c0] frame B:1021  Avg QP:19.48  size: 12470
[libx264 @ 0x55a980aab2c0] consecutive B-frames:  4.0% 13.6%  8.8% 73.7%
[libx264 @ 0x55a980aab2c0] mb I  I16..4: 30.9% 25.7% 43.4%
[libx264 @ 0x55a980aab2c0] mb P  I16..4: 18.1% 20.7%  9.2%  P16..4: 18.3% 15.1% 10.0%  0.0%  0.0%    skip: 8.6%
[libx264 @ 0x55a980aab2c0] mb B  I16..4:  4.9%  3.7%  0.7%  B16..8: 27.4% 15.7%  2.4%  direct:13.2%  skip:32.0%  L0:40.2% L1:42.9% BI:16.8%
[libx264 @ 0x55a980aab2c0] 8x8 transform intra:41.5% inter:31.5%
[libx264 @ 0x55a980aab2c0] coded y,uvDC,uvAC intra: 43.0% 59.9% 27.1% inter: 17.8% 30.0% 1.4%
[libx264 @ 0x55a980aab2c0] i16 v,h,dc,p: 64% 23%  7%  6%
[libx264 @ 0x55a980aab2c0] i8 v,h,dc,ddl,ddr,vr,hd,vl,hu: 43% 21% 15%  3%  3%  4%  3%  4%  3%
[libx264 @ 0x55a980aab2c0] i4 v,h,dc,ddl,ddr,vr,hd,vl,hu: 39% 19% 11%  4%  6%  7%  5%  6%  4%
[libx264 @ 0x55a980aab2c0] i8c dc,h,v,p: 43% 18% 32%  8%
[libx264 @ 0x55a980aab2c0] Weighted P-Frames: Y:10.4% UV:4.5%
[libx264 @ 0x55a980aab2c0] kb/s:3136.80
[aac @ 0x55a980a83b40] Qavg: 64346.789
[AVIOContext @ 0x55a980a24040] Statistics: 96147665 bytes read, 2919 seeks
[AVIOContext @ 0x55a980a57b00] Statistics: 1530915 bytes read, 42 seeks
